%TF.GenerationSoftware,KiCad,Pcbnew,(5.1.9)-1*%
%TF.CreationDate,2021-03-18T23:59:30+01:00*%
%TF.ProjectId,extensioncard,65787465-6e73-4696-9f6e-636172642e6b,rev?*%
%TF.SameCoordinates,Original*%
%TF.FileFunction,Legend,Top*%
%TF.FilePolarity,Positive*%
%FSLAX46Y46*%
G04 Gerber Fmt 4.6, Leading zero omitted, Abs format (unit mm)*
G04 Created by KiCad (PCBNEW (5.1.9)-1) date 2021-03-18 23:59:30*
%MOMM*%
%LPD*%
G01*
G04 APERTURE LIST*
%ADD10C,0.228600*%
%TA.AperFunction,Profile*%
%ADD11C,0.050000*%
%TD*%
%ADD12C,0.120000*%
%ADD13C,0.150000*%
G04 APERTURE END LIST*
D10*
X130955142Y-76744285D02*
X130882571Y-76816857D01*
X130664857Y-76889428D01*
X130519714Y-76889428D01*
X130302000Y-76816857D01*
X130156857Y-76671714D01*
X130084285Y-76526571D01*
X130011714Y-76236285D01*
X130011714Y-76018571D01*
X130084285Y-75728285D01*
X130156857Y-75583142D01*
X130302000Y-75438000D01*
X130519714Y-75365428D01*
X130664857Y-75365428D01*
X130882571Y-75438000D01*
X130955142Y-75510571D01*
X131898571Y-75365428D02*
X132188857Y-75365428D01*
X132334000Y-75438000D01*
X132479142Y-75583142D01*
X132551714Y-75873428D01*
X132551714Y-76381428D01*
X132479142Y-76671714D01*
X132334000Y-76816857D01*
X132188857Y-76889428D01*
X131898571Y-76889428D01*
X131753428Y-76816857D01*
X131608285Y-76671714D01*
X131535714Y-76381428D01*
X131535714Y-75873428D01*
X131608285Y-75583142D01*
X131753428Y-75438000D01*
X131898571Y-75365428D01*
X133204857Y-76889428D02*
X133204857Y-75365428D01*
X133712857Y-76454000D01*
X134220857Y-75365428D01*
X134220857Y-76889428D01*
X134946571Y-76889428D02*
X134946571Y-75365428D01*
X135527142Y-75365428D01*
X135672285Y-75438000D01*
X135744857Y-75510571D01*
X135817428Y-75655714D01*
X135817428Y-75873428D01*
X135744857Y-76018571D01*
X135672285Y-76091142D01*
X135527142Y-76163714D01*
X134946571Y-76163714D01*
X136760857Y-75365428D02*
X137051142Y-75365428D01*
X137196285Y-75438000D01*
X137341428Y-75583142D01*
X137414000Y-75873428D01*
X137414000Y-76381428D01*
X137341428Y-76671714D01*
X137196285Y-76816857D01*
X137051142Y-76889428D01*
X136760857Y-76889428D01*
X136615714Y-76816857D01*
X136470571Y-76671714D01*
X136398000Y-76381428D01*
X136398000Y-75873428D01*
X136470571Y-75583142D01*
X136615714Y-75438000D01*
X136760857Y-75365428D01*
X138067142Y-76889428D02*
X138067142Y-75365428D01*
X138938000Y-76889428D01*
X138938000Y-75365428D01*
X139663714Y-76091142D02*
X140171714Y-76091142D01*
X140389428Y-76889428D02*
X139663714Y-76889428D01*
X139663714Y-75365428D01*
X140389428Y-75365428D01*
X141042571Y-76889428D02*
X141042571Y-75365428D01*
X141913428Y-76889428D01*
X141913428Y-75365428D01*
X142421428Y-75365428D02*
X143292285Y-75365428D01*
X142856857Y-76889428D02*
X142856857Y-75365428D01*
X144888857Y-76816857D02*
X145106571Y-76889428D01*
X145469428Y-76889428D01*
X145614571Y-76816857D01*
X145687142Y-76744285D01*
X145759714Y-76599142D01*
X145759714Y-76454000D01*
X145687142Y-76308857D01*
X145614571Y-76236285D01*
X145469428Y-76163714D01*
X145179142Y-76091142D01*
X145034000Y-76018571D01*
X144961428Y-75946000D01*
X144888857Y-75800857D01*
X144888857Y-75655714D01*
X144961428Y-75510571D01*
X145034000Y-75438000D01*
X145179142Y-75365428D01*
X145542000Y-75365428D01*
X145759714Y-75438000D01*
X146412857Y-76889428D02*
X146412857Y-75365428D01*
X147138571Y-76889428D02*
X147138571Y-75365428D01*
X147501428Y-75365428D01*
X147719142Y-75438000D01*
X147864285Y-75583142D01*
X147936857Y-75728285D01*
X148009428Y-76018571D01*
X148009428Y-76236285D01*
X147936857Y-76526571D01*
X147864285Y-76671714D01*
X147719142Y-76816857D01*
X147501428Y-76889428D01*
X147138571Y-76889428D01*
X148662571Y-76091142D02*
X149170571Y-76091142D01*
X149388285Y-76889428D02*
X148662571Y-76889428D01*
X148662571Y-75365428D01*
X149388285Y-75365428D01*
X127544285Y-80808285D02*
X127399142Y-80735714D01*
X127108857Y-80735714D01*
X126963714Y-80808285D01*
X126818571Y-80953428D01*
X126746000Y-81098571D01*
X126746000Y-81388857D01*
X126818571Y-81534000D01*
X126963714Y-81679142D01*
X127108857Y-81751714D01*
X127399142Y-81751714D01*
X127544285Y-81679142D01*
X127254000Y-80227714D02*
X126891142Y-80300285D01*
X126528285Y-80518000D01*
X126310571Y-80880857D01*
X126238000Y-81243714D01*
X126310571Y-81606571D01*
X126528285Y-81969428D01*
X126891142Y-82187142D01*
X127254000Y-82259714D01*
X127616857Y-82187142D01*
X127979714Y-81969428D01*
X128197428Y-81606571D01*
X128270000Y-81243714D01*
X128197428Y-80880857D01*
X127979714Y-80518000D01*
X127616857Y-80300285D01*
X127254000Y-80227714D01*
X128850571Y-80590571D02*
X128923142Y-80518000D01*
X129068285Y-80445428D01*
X129431142Y-80445428D01*
X129576285Y-80518000D01*
X129648857Y-80590571D01*
X129721428Y-80735714D01*
X129721428Y-80880857D01*
X129648857Y-81098571D01*
X128778000Y-81969428D01*
X129721428Y-81969428D01*
X130664857Y-80445428D02*
X130810000Y-80445428D01*
X130955142Y-80518000D01*
X131027714Y-80590571D01*
X131100285Y-80735714D01*
X131172857Y-81026000D01*
X131172857Y-81388857D01*
X131100285Y-81679142D01*
X131027714Y-81824285D01*
X130955142Y-81896857D01*
X130810000Y-81969428D01*
X130664857Y-81969428D01*
X130519714Y-81896857D01*
X130447142Y-81824285D01*
X130374571Y-81679142D01*
X130302000Y-81388857D01*
X130302000Y-81026000D01*
X130374571Y-80735714D01*
X130447142Y-80590571D01*
X130519714Y-80518000D01*
X130664857Y-80445428D01*
X131753428Y-80590571D02*
X131826000Y-80518000D01*
X131971142Y-80445428D01*
X132334000Y-80445428D01*
X132479142Y-80518000D01*
X132551714Y-80590571D01*
X132624285Y-80735714D01*
X132624285Y-80880857D01*
X132551714Y-81098571D01*
X131680857Y-81969428D01*
X132624285Y-81969428D01*
X134075714Y-81969428D02*
X133204857Y-81969428D01*
X133640285Y-81969428D02*
X133640285Y-80445428D01*
X133495142Y-80663142D01*
X133350000Y-80808285D01*
X133204857Y-80880857D01*
X135890000Y-81969428D02*
X135890000Y-80445428D01*
X136252857Y-80445428D01*
X136470571Y-80518000D01*
X136615714Y-80663142D01*
X136688285Y-80808285D01*
X136760857Y-81098571D01*
X136760857Y-81316285D01*
X136688285Y-81606571D01*
X136615714Y-81751714D01*
X136470571Y-81896857D01*
X136252857Y-81969428D01*
X135890000Y-81969428D01*
X137414000Y-81171142D02*
X137922000Y-81171142D01*
X138139714Y-81969428D02*
X137414000Y-81969428D01*
X137414000Y-80445428D01*
X138139714Y-80445428D01*
X138792857Y-81969428D02*
X138792857Y-80445428D01*
X139663714Y-81969428D01*
X139663714Y-80445428D01*
X140244285Y-80445428D02*
X141260285Y-80445428D01*
X140244285Y-81969428D01*
X141260285Y-81969428D01*
X142784285Y-81243714D02*
X142711714Y-81171142D01*
X142566571Y-81098571D01*
X142421428Y-81098571D01*
X142276285Y-81171142D01*
X142203714Y-81243714D01*
X142131142Y-81388857D01*
X142131142Y-81534000D01*
X142203714Y-81679142D01*
X142276285Y-81751714D01*
X142421428Y-81824285D01*
X142566571Y-81824285D01*
X142711714Y-81751714D01*
X142784285Y-81679142D01*
X142784285Y-81098571D02*
X142784285Y-81679142D01*
X142856857Y-81751714D01*
X142929428Y-81751714D01*
X143074571Y-81679142D01*
X143147142Y-81534000D01*
X143147142Y-81171142D01*
X143002000Y-80953428D01*
X142784285Y-80808285D01*
X142494000Y-80735714D01*
X142203714Y-80808285D01*
X141986000Y-80953428D01*
X141840857Y-81171142D01*
X141768285Y-81461428D01*
X141840857Y-81751714D01*
X141986000Y-81969428D01*
X142203714Y-82114571D01*
X142494000Y-82187142D01*
X142784285Y-82114571D01*
X143002000Y-81969428D01*
X143800285Y-81969428D02*
X143800285Y-80445428D01*
X143800285Y-81171142D02*
X144671142Y-81171142D01*
X144671142Y-81969428D02*
X144671142Y-80445428D01*
X145324285Y-81534000D02*
X146050000Y-81534000D01*
X145179142Y-81969428D02*
X145687142Y-80445428D01*
X146195142Y-81969428D01*
X147574000Y-81824285D02*
X147501428Y-81896857D01*
X147283714Y-81969428D01*
X147138571Y-81969428D01*
X146920857Y-81896857D01*
X146775714Y-81751714D01*
X146703142Y-81606571D01*
X146630571Y-81316285D01*
X146630571Y-81098571D01*
X146703142Y-80808285D01*
X146775714Y-80663142D01*
X146920857Y-80518000D01*
X147138571Y-80445428D01*
X147283714Y-80445428D01*
X147501428Y-80518000D01*
X147574000Y-80590571D01*
X148227142Y-81969428D02*
X148227142Y-80445428D01*
X149098000Y-81969428D02*
X148444857Y-81098571D01*
X149098000Y-80445428D02*
X148227142Y-81316285D01*
X150404285Y-80953428D02*
X150404285Y-81969428D01*
X150041428Y-80372857D02*
X149678571Y-81461428D01*
X150622000Y-81461428D01*
X151130000Y-80590571D02*
X151202571Y-80518000D01*
X151347714Y-80445428D01*
X151710571Y-80445428D01*
X151855714Y-80518000D01*
X151928285Y-80590571D01*
X152000857Y-80735714D01*
X152000857Y-80880857D01*
X151928285Y-81098571D01*
X151057428Y-81969428D01*
X152000857Y-81969428D01*
X123081142Y-72825428D02*
X123444000Y-74349428D01*
X123734285Y-73260857D01*
X124024571Y-74349428D01*
X124387428Y-72825428D01*
X124895428Y-73914000D02*
X125621142Y-73914000D01*
X124750285Y-74349428D02*
X125258285Y-72825428D01*
X125766285Y-74349428D01*
X126274285Y-74349428D02*
X126274285Y-72825428D01*
X127145142Y-74349428D01*
X127145142Y-72825428D01*
X128669142Y-72898000D02*
X128524000Y-72825428D01*
X128306285Y-72825428D01*
X128088571Y-72898000D01*
X127943428Y-73043142D01*
X127870857Y-73188285D01*
X127798285Y-73478571D01*
X127798285Y-73696285D01*
X127870857Y-73986571D01*
X127943428Y-74131714D01*
X128088571Y-74276857D01*
X128306285Y-74349428D01*
X128451428Y-74349428D01*
X128669142Y-74276857D01*
X128741714Y-74204285D01*
X128741714Y-73696285D01*
X128451428Y-73696285D01*
X130483428Y-72970571D02*
X130556000Y-72898000D01*
X130701142Y-72825428D01*
X131064000Y-72825428D01*
X131209142Y-72898000D01*
X131281714Y-72970571D01*
X131354285Y-73115714D01*
X131354285Y-73260857D01*
X131281714Y-73478571D01*
X130410857Y-74349428D01*
X131354285Y-74349428D01*
X131934857Y-72970571D02*
X132007428Y-72898000D01*
X132152571Y-72825428D01*
X132515428Y-72825428D01*
X132660571Y-72898000D01*
X132733142Y-72970571D01*
X132805714Y-73115714D01*
X132805714Y-73260857D01*
X132733142Y-73478571D01*
X131862285Y-74349428D01*
X132805714Y-74349428D01*
X133749142Y-72825428D02*
X133894285Y-72825428D01*
X134039428Y-72898000D01*
X134112000Y-72970571D01*
X134184571Y-73115714D01*
X134257142Y-73406000D01*
X134257142Y-73768857D01*
X134184571Y-74059142D01*
X134112000Y-74204285D01*
X134039428Y-74276857D01*
X133894285Y-74349428D01*
X133749142Y-74349428D01*
X133604000Y-74276857D01*
X133531428Y-74204285D01*
X133458857Y-74059142D01*
X133386285Y-73768857D01*
X133386285Y-73406000D01*
X133458857Y-73115714D01*
X133531428Y-72970571D01*
X133604000Y-72898000D01*
X133749142Y-72825428D01*
X135200571Y-72825428D02*
X135345714Y-72825428D01*
X135490857Y-72898000D01*
X135563428Y-72970571D01*
X135636000Y-73115714D01*
X135708571Y-73406000D01*
X135708571Y-73768857D01*
X135636000Y-74059142D01*
X135563428Y-74204285D01*
X135490857Y-74276857D01*
X135345714Y-74349428D01*
X135200571Y-74349428D01*
X135055428Y-74276857D01*
X134982857Y-74204285D01*
X134910285Y-74059142D01*
X134837714Y-73768857D01*
X134837714Y-73406000D01*
X134910285Y-73115714D01*
X134982857Y-72970571D01*
X135055428Y-72898000D01*
X135200571Y-72825428D01*
X137522857Y-73551142D02*
X138030857Y-73551142D01*
X138248571Y-74349428D02*
X137522857Y-74349428D01*
X137522857Y-72825428D01*
X138248571Y-72825428D01*
X138756571Y-72825428D02*
X139772571Y-74349428D01*
X139772571Y-72825428D02*
X138756571Y-74349428D01*
X140135428Y-72825428D02*
X141006285Y-72825428D01*
X140570857Y-74349428D02*
X140570857Y-72825428D01*
X141514285Y-73551142D02*
X142022285Y-73551142D01*
X142240000Y-74349428D02*
X141514285Y-74349428D01*
X141514285Y-72825428D01*
X142240000Y-72825428D01*
X142893142Y-74349428D02*
X142893142Y-72825428D01*
X143764000Y-74349428D01*
X143764000Y-72825428D01*
X144417142Y-74276857D02*
X144634857Y-74349428D01*
X144997714Y-74349428D01*
X145142857Y-74276857D01*
X145215428Y-74204285D01*
X145288000Y-74059142D01*
X145288000Y-73914000D01*
X145215428Y-73768857D01*
X145142857Y-73696285D01*
X144997714Y-73623714D01*
X144707428Y-73551142D01*
X144562285Y-73478571D01*
X144489714Y-73406000D01*
X144417142Y-73260857D01*
X144417142Y-73115714D01*
X144489714Y-72970571D01*
X144562285Y-72898000D01*
X144707428Y-72825428D01*
X145070285Y-72825428D01*
X145288000Y-72898000D01*
X145941142Y-74349428D02*
X145941142Y-72825428D01*
X146957142Y-72825428D02*
X147247428Y-72825428D01*
X147392571Y-72898000D01*
X147537714Y-73043142D01*
X147610285Y-73333428D01*
X147610285Y-73841428D01*
X147537714Y-74131714D01*
X147392571Y-74276857D01*
X147247428Y-74349428D01*
X146957142Y-74349428D01*
X146812000Y-74276857D01*
X146666857Y-74131714D01*
X146594285Y-73841428D01*
X146594285Y-73333428D01*
X146666857Y-73043142D01*
X146812000Y-72898000D01*
X146957142Y-72825428D01*
X148263428Y-74349428D02*
X148263428Y-72825428D01*
X149134285Y-74349428D01*
X149134285Y-72825428D01*
X151892000Y-74204285D02*
X151819428Y-74276857D01*
X151601714Y-74349428D01*
X151456571Y-74349428D01*
X151238857Y-74276857D01*
X151093714Y-74131714D01*
X151021142Y-73986571D01*
X150948571Y-73696285D01*
X150948571Y-73478571D01*
X151021142Y-73188285D01*
X151093714Y-73043142D01*
X151238857Y-72898000D01*
X151456571Y-72825428D01*
X151601714Y-72825428D01*
X151819428Y-72898000D01*
X151892000Y-72970571D01*
X152472571Y-73914000D02*
X153198285Y-73914000D01*
X152327428Y-74349428D02*
X152835428Y-72825428D01*
X153343428Y-74349428D01*
X154722285Y-74349428D02*
X154214285Y-73623714D01*
X153851428Y-74349428D02*
X153851428Y-72825428D01*
X154432000Y-72825428D01*
X154577142Y-72898000D01*
X154649714Y-72970571D01*
X154722285Y-73115714D01*
X154722285Y-73333428D01*
X154649714Y-73478571D01*
X154577142Y-73551142D01*
X154432000Y-73623714D01*
X153851428Y-73623714D01*
X155375428Y-74349428D02*
X155375428Y-72825428D01*
X155738285Y-72825428D01*
X155956000Y-72898000D01*
X156101142Y-73043142D01*
X156173714Y-73188285D01*
X156246285Y-73478571D01*
X156246285Y-73696285D01*
X156173714Y-73986571D01*
X156101142Y-74131714D01*
X155956000Y-74276857D01*
X155738285Y-74349428D01*
X155375428Y-74349428D01*
X226314000Y-74022857D02*
X226314000Y-73297142D01*
X226749428Y-74168000D02*
X225225428Y-73660000D01*
X226749428Y-73152000D01*
X226676857Y-129975428D02*
X226749428Y-129757714D01*
X226749428Y-129394857D01*
X226676857Y-129249714D01*
X226604285Y-129177142D01*
X226459142Y-129104571D01*
X226314000Y-129104571D01*
X226168857Y-129177142D01*
X226096285Y-129249714D01*
X226023714Y-129394857D01*
X225951142Y-129685142D01*
X225878571Y-129830285D01*
X225806000Y-129902857D01*
X225660857Y-129975428D01*
X225515714Y-129975428D01*
X225370571Y-129902857D01*
X225298000Y-129830285D01*
X225225428Y-129685142D01*
X225225428Y-129322285D01*
X225298000Y-129104571D01*
D11*
X241300000Y-71120000D02*
X241300000Y-132080000D01*
X240030000Y-69850000D02*
X241300000Y-71120000D01*
X39370000Y-69850000D02*
X240030000Y-69850000D01*
X38100000Y-71120000D02*
X39370000Y-69850000D01*
X38100000Y-132080000D02*
X38100000Y-71120000D01*
X39370000Y-133350000D02*
X38100000Y-132080000D01*
X240030000Y-133350000D02*
X39370000Y-133350000D01*
X241300000Y-132080000D02*
X240030000Y-133350000D01*
D10*
X40204571Y-119996857D02*
X40422285Y-120069428D01*
X40785142Y-120069428D01*
X40930285Y-119996857D01*
X41002857Y-119924285D01*
X41075428Y-119779142D01*
X41075428Y-119634000D01*
X41002857Y-119488857D01*
X40930285Y-119416285D01*
X40785142Y-119343714D01*
X40494857Y-119271142D01*
X40349714Y-119198571D01*
X40277142Y-119126000D01*
X40204571Y-118980857D01*
X40204571Y-118835714D01*
X40277142Y-118690571D01*
X40349714Y-118618000D01*
X40494857Y-118545428D01*
X40857714Y-118545428D01*
X41075428Y-118618000D01*
X41111714Y-117529428D02*
X40603714Y-116803714D01*
X40240857Y-117529428D02*
X40240857Y-116005428D01*
X40821428Y-116005428D01*
X40966571Y-116078000D01*
X41039142Y-116150571D01*
X41111714Y-116295714D01*
X41111714Y-116513428D01*
X41039142Y-116658571D01*
X40966571Y-116731142D01*
X40821428Y-116803714D01*
X40240857Y-116803714D01*
X40240857Y-114989428D02*
X40240857Y-113465428D01*
X40821428Y-113465428D01*
X40966571Y-113538000D01*
X41039142Y-113610571D01*
X41111714Y-113755714D01*
X41111714Y-113973428D01*
X41039142Y-114118571D01*
X40966571Y-114191142D01*
X40821428Y-114263714D01*
X40240857Y-114263714D01*
X40204571Y-112449428D02*
X40204571Y-110925428D01*
X41075428Y-112449428D01*
X41075428Y-110925428D01*
X40132000Y-109909428D02*
X40132000Y-108385428D01*
X40640000Y-109474000D01*
X41148000Y-108385428D01*
X41148000Y-109909428D01*
X41111714Y-107369428D02*
X40386000Y-107369428D01*
X40386000Y-105845428D01*
X40240857Y-104829428D02*
X40240857Y-103305428D01*
X41111714Y-104829428D02*
X40458571Y-103958571D01*
X41111714Y-103305428D02*
X40240857Y-104176285D01*
X40857714Y-100765428D02*
X40857714Y-101854000D01*
X40785142Y-102071714D01*
X40640000Y-102216857D01*
X40422285Y-102289428D01*
X40277142Y-102289428D01*
X40204571Y-99749428D02*
X40204571Y-98225428D01*
X40204571Y-98951142D02*
X41075428Y-98951142D01*
X41075428Y-99749428D02*
X41075428Y-98225428D01*
X40857714Y-96411142D02*
X40349714Y-96411142D01*
X40349714Y-97209428D02*
X40349714Y-95685428D01*
X41075428Y-95685428D01*
X40313428Y-93871142D02*
X40821428Y-93871142D01*
X41039142Y-94669428D02*
X40313428Y-94669428D01*
X40313428Y-93145428D01*
X41039142Y-93145428D01*
X40240857Y-92129428D02*
X40240857Y-90605428D01*
X40603714Y-90605428D01*
X40821428Y-90678000D01*
X40966571Y-90823142D01*
X41039142Y-90968285D01*
X41111714Y-91258571D01*
X41111714Y-91476285D01*
X41039142Y-91766571D01*
X40966571Y-91911714D01*
X40821428Y-92056857D01*
X40603714Y-92129428D01*
X40240857Y-92129428D01*
X41111714Y-89444285D02*
X41039142Y-89516857D01*
X40821428Y-89589428D01*
X40676285Y-89589428D01*
X40458571Y-89516857D01*
X40313428Y-89371714D01*
X40240857Y-89226571D01*
X40168285Y-88936285D01*
X40168285Y-88718571D01*
X40240857Y-88428285D01*
X40313428Y-88283142D01*
X40458571Y-88138000D01*
X40676285Y-88065428D01*
X40821428Y-88065428D01*
X41039142Y-88138000D01*
X41111714Y-88210571D01*
X40748857Y-86251142D02*
X40966571Y-86323714D01*
X41039142Y-86396285D01*
X41111714Y-86541428D01*
X41111714Y-86759142D01*
X41039142Y-86904285D01*
X40966571Y-86976857D01*
X40821428Y-87049428D01*
X40240857Y-87049428D01*
X40240857Y-85525428D01*
X40748857Y-85525428D01*
X40894000Y-85598000D01*
X40966571Y-85670571D01*
X41039142Y-85815714D01*
X41039142Y-85960857D01*
X40966571Y-86106000D01*
X40894000Y-86178571D01*
X40748857Y-86251142D01*
X40240857Y-86251142D01*
X40277142Y-84074000D02*
X41002857Y-84074000D01*
X40132000Y-84509428D02*
X40640000Y-82985428D01*
X41148000Y-84509428D01*
X53049714Y-120069428D02*
X52178857Y-120069428D01*
X52614285Y-120069428D02*
X52614285Y-118545428D01*
X52469142Y-118763142D01*
X52324000Y-118908285D01*
X52178857Y-118980857D01*
X54428571Y-118545428D02*
X53702857Y-118545428D01*
X53630285Y-119271142D01*
X53702857Y-119198571D01*
X53848000Y-119126000D01*
X54210857Y-119126000D01*
X54356000Y-119198571D01*
X54428571Y-119271142D01*
X54501142Y-119416285D01*
X54501142Y-119779142D01*
X54428571Y-119924285D01*
X54356000Y-119996857D01*
X54210857Y-120069428D01*
X53848000Y-120069428D01*
X53702857Y-119996857D01*
X53630285Y-119924285D01*
X53049714Y-117529428D02*
X52178857Y-117529428D01*
X52614285Y-117529428D02*
X52614285Y-116005428D01*
X52469142Y-116223142D01*
X52324000Y-116368285D01*
X52178857Y-116440857D01*
X54356000Y-116513428D02*
X54356000Y-117529428D01*
X53993142Y-115932857D02*
X53630285Y-117021428D01*
X54573714Y-117021428D01*
X53049714Y-114989428D02*
X52178857Y-114989428D01*
X52614285Y-114989428D02*
X52614285Y-113465428D01*
X52469142Y-113683142D01*
X52324000Y-113828285D01*
X52178857Y-113900857D01*
X53557714Y-113465428D02*
X54501142Y-113465428D01*
X53993142Y-114046000D01*
X54210857Y-114046000D01*
X54356000Y-114118571D01*
X54428571Y-114191142D01*
X54501142Y-114336285D01*
X54501142Y-114699142D01*
X54428571Y-114844285D01*
X54356000Y-114916857D01*
X54210857Y-114989428D01*
X53775428Y-114989428D01*
X53630285Y-114916857D01*
X53557714Y-114844285D01*
X53049714Y-112449428D02*
X52178857Y-112449428D01*
X52614285Y-112449428D02*
X52614285Y-110925428D01*
X52469142Y-111143142D01*
X52324000Y-111288285D01*
X52178857Y-111360857D01*
X53630285Y-111070571D02*
X53702857Y-110998000D01*
X53848000Y-110925428D01*
X54210857Y-110925428D01*
X54356000Y-110998000D01*
X54428571Y-111070571D01*
X54501142Y-111215714D01*
X54501142Y-111360857D01*
X54428571Y-111578571D01*
X53557714Y-112449428D01*
X54501142Y-112449428D01*
X53049714Y-109909428D02*
X52178857Y-109909428D01*
X52614285Y-109909428D02*
X52614285Y-108385428D01*
X52469142Y-108603142D01*
X52324000Y-108748285D01*
X52178857Y-108820857D01*
X54501142Y-109909428D02*
X53630285Y-109909428D01*
X54065714Y-109909428D02*
X54065714Y-108385428D01*
X53920571Y-108603142D01*
X53775428Y-108748285D01*
X53630285Y-108820857D01*
X53049714Y-107369428D02*
X52178857Y-107369428D01*
X52614285Y-107369428D02*
X52614285Y-105845428D01*
X52469142Y-106063142D01*
X52324000Y-106208285D01*
X52178857Y-106280857D01*
X53993142Y-105845428D02*
X54138285Y-105845428D01*
X54283428Y-105918000D01*
X54356000Y-105990571D01*
X54428571Y-106135714D01*
X54501142Y-106426000D01*
X54501142Y-106788857D01*
X54428571Y-107079142D01*
X54356000Y-107224285D01*
X54283428Y-107296857D01*
X54138285Y-107369428D01*
X53993142Y-107369428D01*
X53848000Y-107296857D01*
X53775428Y-107224285D01*
X53702857Y-107079142D01*
X53630285Y-106788857D01*
X53630285Y-106426000D01*
X53702857Y-106135714D01*
X53775428Y-105990571D01*
X53848000Y-105918000D01*
X53993142Y-105845428D01*
X53049714Y-104829428D02*
X53340000Y-104829428D01*
X53485142Y-104756857D01*
X53557714Y-104684285D01*
X53702857Y-104466571D01*
X53775428Y-104176285D01*
X53775428Y-103595714D01*
X53702857Y-103450571D01*
X53630285Y-103378000D01*
X53485142Y-103305428D01*
X53194857Y-103305428D01*
X53049714Y-103378000D01*
X52977142Y-103450571D01*
X52904571Y-103595714D01*
X52904571Y-103958571D01*
X52977142Y-104103714D01*
X53049714Y-104176285D01*
X53194857Y-104248857D01*
X53485142Y-104248857D01*
X53630285Y-104176285D01*
X53702857Y-104103714D01*
X53775428Y-103958571D01*
X53194857Y-101418571D02*
X53049714Y-101346000D01*
X52977142Y-101273428D01*
X52904571Y-101128285D01*
X52904571Y-101055714D01*
X52977142Y-100910571D01*
X53049714Y-100838000D01*
X53194857Y-100765428D01*
X53485142Y-100765428D01*
X53630285Y-100838000D01*
X53702857Y-100910571D01*
X53775428Y-101055714D01*
X53775428Y-101128285D01*
X53702857Y-101273428D01*
X53630285Y-101346000D01*
X53485142Y-101418571D01*
X53194857Y-101418571D01*
X53049714Y-101491142D01*
X52977142Y-101563714D01*
X52904571Y-101708857D01*
X52904571Y-101999142D01*
X52977142Y-102144285D01*
X53049714Y-102216857D01*
X53194857Y-102289428D01*
X53485142Y-102289428D01*
X53630285Y-102216857D01*
X53702857Y-102144285D01*
X53775428Y-101999142D01*
X53775428Y-101708857D01*
X53702857Y-101563714D01*
X53630285Y-101491142D01*
X53485142Y-101418571D01*
X52832000Y-98225428D02*
X53848000Y-98225428D01*
X53194857Y-99749428D01*
X53630285Y-95685428D02*
X53340000Y-95685428D01*
X53194857Y-95758000D01*
X53122285Y-95830571D01*
X52977142Y-96048285D01*
X52904571Y-96338571D01*
X52904571Y-96919142D01*
X52977142Y-97064285D01*
X53049714Y-97136857D01*
X53194857Y-97209428D01*
X53485142Y-97209428D01*
X53630285Y-97136857D01*
X53702857Y-97064285D01*
X53775428Y-96919142D01*
X53775428Y-96556285D01*
X53702857Y-96411142D01*
X53630285Y-96338571D01*
X53485142Y-96266000D01*
X53194857Y-96266000D01*
X53049714Y-96338571D01*
X52977142Y-96411142D01*
X52904571Y-96556285D01*
X53702857Y-93145428D02*
X52977142Y-93145428D01*
X52904571Y-93871142D01*
X52977142Y-93798571D01*
X53122285Y-93726000D01*
X53485142Y-93726000D01*
X53630285Y-93798571D01*
X53702857Y-93871142D01*
X53775428Y-94016285D01*
X53775428Y-94379142D01*
X53702857Y-94524285D01*
X53630285Y-94596857D01*
X53485142Y-94669428D01*
X53122285Y-94669428D01*
X52977142Y-94596857D01*
X52904571Y-94524285D01*
X53630285Y-91113428D02*
X53630285Y-92129428D01*
X53267428Y-90532857D02*
X52904571Y-91621428D01*
X53848000Y-91621428D01*
X52832000Y-88065428D02*
X53775428Y-88065428D01*
X53267428Y-88646000D01*
X53485142Y-88646000D01*
X53630285Y-88718571D01*
X53702857Y-88791142D01*
X53775428Y-88936285D01*
X53775428Y-89299142D01*
X53702857Y-89444285D01*
X53630285Y-89516857D01*
X53485142Y-89589428D01*
X53049714Y-89589428D01*
X52904571Y-89516857D01*
X52832000Y-89444285D01*
X52904571Y-85670571D02*
X52977142Y-85598000D01*
X53122285Y-85525428D01*
X53485142Y-85525428D01*
X53630285Y-85598000D01*
X53702857Y-85670571D01*
X53775428Y-85815714D01*
X53775428Y-85960857D01*
X53702857Y-86178571D01*
X52832000Y-87049428D01*
X53775428Y-87049428D01*
X53775428Y-84509428D02*
X52904571Y-84509428D01*
X53340000Y-84509428D02*
X53340000Y-82985428D01*
X53194857Y-83203142D01*
X53049714Y-83348285D01*
X52904571Y-83420857D01*
D12*
%TO.C,J3*%
X49590000Y-120710000D02*
X48260000Y-120710000D01*
X49590000Y-119380000D02*
X49590000Y-120710000D01*
X46990000Y-120710000D02*
X44390000Y-120710000D01*
X46990000Y-118110000D02*
X46990000Y-120710000D01*
X49590000Y-118110000D02*
X46990000Y-118110000D01*
X44390000Y-120710000D02*
X44390000Y-82490000D01*
X49590000Y-118110000D02*
X49590000Y-82490000D01*
X49590000Y-82490000D02*
X44390000Y-82490000D01*
%TD*%
%TO.C,J1*%
D13*
X225512380Y-101933333D02*
X226226666Y-101933333D01*
X226369523Y-101980952D01*
X226464761Y-102076190D01*
X226512380Y-102219047D01*
X226512380Y-102314285D01*
X226512380Y-100933333D02*
X226512380Y-101504761D01*
X226512380Y-101219047D02*
X225512380Y-101219047D01*
X225655238Y-101314285D01*
X225750476Y-101409523D01*
X225798095Y-101504761D01*
%TO.C,J3*%
X46656666Y-121162380D02*
X46656666Y-121876666D01*
X46609047Y-122019523D01*
X46513809Y-122114761D01*
X46370952Y-122162380D01*
X46275714Y-122162380D01*
X47037619Y-121162380D02*
X47656666Y-121162380D01*
X47323333Y-121543333D01*
X47466190Y-121543333D01*
X47561428Y-121590952D01*
X47609047Y-121638571D01*
X47656666Y-121733809D01*
X47656666Y-121971904D01*
X47609047Y-122067142D01*
X47561428Y-122114761D01*
X47466190Y-122162380D01*
X47180476Y-122162380D01*
X47085238Y-122114761D01*
X47037619Y-122067142D01*
%TD*%
M02*
