M48
; DRILL file {KiCad (5.1.9)-1} date 03/18/21 23:59:32
; FORMAT={-:-/ absolute / inch / decimal}
; #@! TF.CreationDate,2021-03-18T23:59:33+01:00
; #@! TF.GenerationSoftware,Kicad,Pcbnew,(5.1.9)-1
; #@! TF.FileFunction,Plated,1,2,PTH
FMAT,2
INCH
T1C0.0394
T2C0.0472
%
G90
G05
T1
X1.8Y-3.3
X1.8Y-3.4
X1.8Y-3.5
X1.8Y-3.6
X1.8Y-3.7
X1.8Y-3.8
X1.8Y-3.9
X1.8Y-4.0
X1.8Y-4.1
X1.8Y-4.2
X1.8Y-4.3
X1.8Y-4.4
X1.8Y-4.5
X1.8Y-4.6
X1.8Y-4.7
X1.9Y-3.3
X1.9Y-3.4
X1.9Y-3.5
X1.9Y-3.6
X1.9Y-3.7
X1.9Y-3.8
X1.9Y-3.9
X1.9Y-4.0
X1.9Y-4.1
X1.9Y-4.2
X1.9Y-4.3
X1.9Y-4.4
X1.9Y-4.5
X1.9Y-4.6
X1.9Y-4.7
T2
X2.4Y-2.9062
X2.4Y-3.0625
X2.4Y-3.2188
X2.4Y-3.375
X2.4Y-3.5312
X2.4Y-3.6875
X2.4Y-3.8438
X2.4Y-4.0
X2.4Y-4.1562
X2.4Y-4.3125
X2.4Y-4.4688
X2.4Y-4.625
X2.4Y-4.7812
X2.4Y-4.9375
X2.4Y-5.0938
X2.6Y-2.9062
X2.6Y-3.0625
X2.6Y-3.2188
X2.6Y-3.375
X2.6Y-3.5312
X2.6Y-3.6875
X2.6Y-3.8438
X2.6Y-4.0
X2.6Y-4.1562
X2.6Y-4.3125
X2.6Y-4.4688
X2.6Y-4.625
X2.6Y-4.7812
X2.6Y-4.9375
X2.6Y-5.0938
T0
M30
