%TF.GenerationSoftware,KiCad,Pcbnew,(5.1.9)-1*%
%TF.CreationDate,2021-03-18T23:59:30+01:00*%
%TF.ProjectId,extensioncard,65787465-6e73-4696-9f6e-636172642e6b,rev?*%
%TF.SameCoordinates,Original*%
%TF.FileFunction,Soldermask,Bot*%
%TF.FilePolarity,Negative*%
%FSLAX46Y46*%
G04 Gerber Fmt 4.6, Leading zero omitted, Abs format (unit mm)*
G04 Created by KiCad (PCBNEW (5.1.9)-1) date 2021-03-18 23:59:30*
%MOMM*%
%LPD*%
G01*
G04 APERTURE LIST*
%TA.AperFunction,Profile*%
%ADD10C,0.050000*%
%TD*%
%ADD11R,10.160000X2.381250*%
%ADD12O,2.540000X2.540000*%
%ADD13O,1.700000X1.700000*%
%ADD14R,1.700000X1.700000*%
G04 APERTURE END LIST*
D10*
X241300000Y-71120000D02*
X241300000Y-132080000D01*
X240030000Y-69850000D02*
X241300000Y-71120000D01*
X39370000Y-69850000D02*
X240030000Y-69850000D01*
X38100000Y-71120000D02*
X39370000Y-69850000D01*
X38100000Y-132080000D02*
X38100000Y-71120000D01*
X39370000Y-133350000D02*
X38100000Y-132080000D01*
X240030000Y-133350000D02*
X39370000Y-133350000D01*
X241300000Y-132080000D02*
X240030000Y-133350000D01*
D11*
%TO.C,J1*%
X236220000Y-121443750D03*
X236220000Y-117475000D03*
X236220000Y-113506250D03*
X236220000Y-109537500D03*
X236220000Y-105568750D03*
X236220000Y-101600000D03*
X236220000Y-97631250D03*
X236220000Y-93662500D03*
X236220000Y-89693750D03*
X236220000Y-85725000D03*
X236220000Y-81756250D03*
X236220000Y-77787500D03*
X236220000Y-73818750D03*
X236220000Y-125412500D03*
X236220000Y-129381250D03*
%TD*%
D12*
%TO.C,J2*%
X60960000Y-129381250D03*
X60960000Y-125412500D03*
X60960000Y-121443750D03*
X60960000Y-117475000D03*
X60960000Y-113506250D03*
X60960000Y-109537500D03*
X60960000Y-105568750D03*
X60960000Y-101600000D03*
X60960000Y-97631250D03*
X60960000Y-93662500D03*
X60960000Y-89693750D03*
X60960000Y-85725000D03*
X60960000Y-81756250D03*
X60960000Y-77787500D03*
X60960000Y-73818750D03*
X66040000Y-129381250D03*
X66040000Y-125412500D03*
X66040000Y-121443750D03*
X66040000Y-117475000D03*
X66040000Y-113506250D03*
X66040000Y-109537500D03*
X66040000Y-105568750D03*
X66040000Y-101600000D03*
X66040000Y-97631250D03*
X66040000Y-93662500D03*
X66040000Y-89693750D03*
X66040000Y-85725000D03*
X66040000Y-81756250D03*
X66040000Y-77787500D03*
X66040000Y-73818750D03*
%TD*%
D13*
%TO.C,J3*%
X45720000Y-83820000D03*
X48260000Y-83820000D03*
X45720000Y-86360000D03*
X48260000Y-86360000D03*
X45720000Y-88900000D03*
X48260000Y-88900000D03*
X45720000Y-91440000D03*
X48260000Y-91440000D03*
X45720000Y-93980000D03*
X48260000Y-93980000D03*
X45720000Y-96520000D03*
X48260000Y-96520000D03*
X45720000Y-99060000D03*
X48260000Y-99060000D03*
X45720000Y-101600000D03*
X48260000Y-101600000D03*
X45720000Y-104140000D03*
X48260000Y-104140000D03*
X45720000Y-106680000D03*
X48260000Y-106680000D03*
X45720000Y-109220000D03*
X48260000Y-109220000D03*
X45720000Y-111760000D03*
X48260000Y-111760000D03*
X45720000Y-114300000D03*
X48260000Y-114300000D03*
X45720000Y-116840000D03*
X48260000Y-116840000D03*
X45720000Y-119380000D03*
D14*
X48260000Y-119380000D03*
%TD*%
M02*
