%TF.GenerationSoftware,KiCad,Pcbnew,(5.1.9)-1*%
%TF.CreationDate,2021-03-18T23:59:30+01:00*%
%TF.ProjectId,extensioncard,65787465-6e73-4696-9f6e-636172642e6b,rev?*%
%TF.SameCoordinates,Original*%
%TF.FileFunction,Copper,L1,Top*%
%TF.FilePolarity,Positive*%
%FSLAX46Y46*%
G04 Gerber Fmt 4.6, Leading zero omitted, Abs format (unit mm)*
G04 Created by KiCad (PCBNEW (5.1.9)-1) date 2021-03-18 23:59:30*
%MOMM*%
%LPD*%
G01*
G04 APERTURE LIST*
%TA.AperFunction,Profile*%
%ADD10C,0.050000*%
%TD*%
%TA.AperFunction,ConnectorPad*%
%ADD11R,10.160000X2.381250*%
%TD*%
%TA.AperFunction,ComponentPad*%
%ADD12O,2.540000X2.540000*%
%TD*%
%TA.AperFunction,ComponentPad*%
%ADD13O,1.700000X1.700000*%
%TD*%
%TA.AperFunction,ComponentPad*%
%ADD14R,1.700000X1.700000*%
%TD*%
%TA.AperFunction,Conductor*%
%ADD15C,0.609600*%
%TD*%
%TA.AperFunction,Conductor*%
%ADD16C,0.406400*%
%TD*%
G04 APERTURE END LIST*
D10*
X241300000Y-71120000D02*
X241300000Y-132080000D01*
X240030000Y-69850000D02*
X241300000Y-71120000D01*
X39370000Y-69850000D02*
X240030000Y-69850000D01*
X38100000Y-71120000D02*
X39370000Y-69850000D01*
X38100000Y-132080000D02*
X38100000Y-71120000D01*
X39370000Y-133350000D02*
X38100000Y-132080000D01*
X240030000Y-133350000D02*
X39370000Y-133350000D01*
X241300000Y-132080000D02*
X240030000Y-133350000D01*
D11*
%TO.P,J1,A*%
%TO.N,/PINA*%
X236220000Y-73818750D03*
%TO.P,J1,B*%
%TO.N,/PINB*%
X236220000Y-77787500D03*
%TO.P,J1,C*%
%TO.N,/PINC*%
X236220000Y-81756250D03*
%TO.P,J1,D*%
%TO.N,/PIND*%
X236220000Y-85725000D03*
%TO.P,J1,E*%
%TO.N,/PINE*%
X236220000Y-89693750D03*
%TO.P,J1,F*%
%TO.N,/PINF*%
X236220000Y-93662500D03*
%TO.P,J1,H*%
%TO.N,/PINH*%
X236220000Y-97631250D03*
%TO.P,J1,J*%
%TO.N,/PINJ*%
X236220000Y-101600000D03*
%TO.P,J1,K*%
%TO.N,/PINK*%
X236220000Y-105568750D03*
%TO.P,J1,L*%
%TO.N,/PINL*%
X236220000Y-109537500D03*
%TO.P,J1,M*%
%TO.N,/PINM*%
X236220000Y-113506250D03*
%TO.P,J1,N*%
%TO.N,/PINN*%
X236220000Y-117475000D03*
%TO.P,J1,P*%
%TO.N,/PINP*%
X236220000Y-121443750D03*
%TO.P,J1,R*%
%TO.N,/PINR*%
X236220000Y-125412500D03*
%TO.P,J1,S*%
%TO.N,/PINS*%
X236220000Y-129381250D03*
%TD*%
D12*
%TO.P,J2,S*%
%TO.N,/PINS*%
X60960000Y-129381250D03*
%TO.P,J2,R*%
%TO.N,/PINR*%
X60960000Y-125412500D03*
%TO.P,J2,P*%
%TO.N,/PINP*%
X60960000Y-121443750D03*
%TO.P,J2,N*%
%TO.N,/PINN*%
X60960000Y-117475000D03*
%TO.P,J2,M*%
%TO.N,/PINM*%
X60960000Y-113506250D03*
%TO.P,J2,L*%
%TO.N,/PINL*%
X60960000Y-109537500D03*
%TO.P,J2,K*%
%TO.N,/PINK*%
X60960000Y-105568750D03*
%TO.P,J2,J*%
%TO.N,/PINJ*%
X60960000Y-101600000D03*
%TO.P,J2,H*%
%TO.N,/PINH*%
X60960000Y-97631250D03*
%TO.P,J2,F*%
%TO.N,/PINF*%
X60960000Y-93662500D03*
%TO.P,J2,E*%
%TO.N,/PINE*%
X60960000Y-89693750D03*
%TO.P,J2,D*%
%TO.N,/PIND*%
X60960000Y-85725000D03*
%TO.P,J2,C*%
%TO.N,/PINC*%
X60960000Y-81756250D03*
%TO.P,J2,B*%
%TO.N,/PINB*%
X60960000Y-77787500D03*
%TO.P,J2,A*%
%TO.N,/PINA*%
X60960000Y-73818750D03*
%TO.P,J2,15*%
%TO.N,/PIN15*%
X66040000Y-129381250D03*
%TO.P,J2,14*%
%TO.N,/PIN14*%
X66040000Y-125412500D03*
%TO.P,J2,13*%
%TO.N,/PIN13*%
X66040000Y-121443750D03*
%TO.P,J2,12*%
%TO.N,/PIN12*%
X66040000Y-117475000D03*
%TO.P,J2,11*%
%TO.N,/PIN11*%
X66040000Y-113506250D03*
%TO.P,J2,10*%
%TO.N,/PIN10*%
X66040000Y-109537500D03*
%TO.P,J2,9*%
%TO.N,/PIN9*%
X66040000Y-105568750D03*
%TO.P,J2,8*%
%TO.N,/PIN8*%
X66040000Y-101600000D03*
%TO.P,J2,7*%
%TO.N,/PIN7*%
X66040000Y-97631250D03*
%TO.P,J2,6*%
%TO.N,/PIN6*%
X66040000Y-93662500D03*
%TO.P,J2,5*%
%TO.N,/PIN5*%
X66040000Y-89693750D03*
%TO.P,J2,4*%
%TO.N,/PIN4*%
X66040000Y-85725000D03*
%TO.P,J2,3*%
%TO.N,/PIN3*%
X66040000Y-81756250D03*
%TO.P,J2,2*%
%TO.N,/PIN2*%
X66040000Y-77787500D03*
%TO.P,J2,1*%
%TO.N,/PIN1*%
X66040000Y-73818750D03*
%TD*%
D13*
%TO.P,J3,30*%
%TO.N,/PINA*%
X45720000Y-83820000D03*
%TO.P,J3,29*%
%TO.N,/PIN1*%
X48260000Y-83820000D03*
%TO.P,J3,28*%
%TO.N,/PINB*%
X45720000Y-86360000D03*
%TO.P,J3,27*%
%TO.N,/PIN2*%
X48260000Y-86360000D03*
%TO.P,J3,26*%
%TO.N,/PINC*%
X45720000Y-88900000D03*
%TO.P,J3,25*%
%TO.N,/PIN3*%
X48260000Y-88900000D03*
%TO.P,J3,24*%
%TO.N,/PIND*%
X45720000Y-91440000D03*
%TO.P,J3,23*%
%TO.N,/PIN4*%
X48260000Y-91440000D03*
%TO.P,J3,22*%
%TO.N,/PINE*%
X45720000Y-93980000D03*
%TO.P,J3,21*%
%TO.N,/PIN5*%
X48260000Y-93980000D03*
%TO.P,J3,20*%
%TO.N,/PINF*%
X45720000Y-96520000D03*
%TO.P,J3,19*%
%TO.N,/PIN6*%
X48260000Y-96520000D03*
%TO.P,J3,18*%
%TO.N,/PINH*%
X45720000Y-99060000D03*
%TO.P,J3,17*%
%TO.N,/PIN7*%
X48260000Y-99060000D03*
%TO.P,J3,16*%
%TO.N,/PINJ*%
X45720000Y-101600000D03*
%TO.P,J3,15*%
%TO.N,/PIN8*%
X48260000Y-101600000D03*
%TO.P,J3,14*%
%TO.N,/PINK*%
X45720000Y-104140000D03*
%TO.P,J3,13*%
%TO.N,/PIN9*%
X48260000Y-104140000D03*
%TO.P,J3,12*%
%TO.N,/PINL*%
X45720000Y-106680000D03*
%TO.P,J3,11*%
%TO.N,/PIN10*%
X48260000Y-106680000D03*
%TO.P,J3,10*%
%TO.N,/PINM*%
X45720000Y-109220000D03*
%TO.P,J3,9*%
%TO.N,/PIN11*%
X48260000Y-109220000D03*
%TO.P,J3,8*%
%TO.N,/PINN*%
X45720000Y-111760000D03*
%TO.P,J3,7*%
%TO.N,/PIN12*%
X48260000Y-111760000D03*
%TO.P,J3,6*%
%TO.N,/PINP*%
X45720000Y-114300000D03*
%TO.P,J3,5*%
%TO.N,/PIN13*%
X48260000Y-114300000D03*
%TO.P,J3,4*%
%TO.N,/PINR*%
X45720000Y-116840000D03*
%TO.P,J3,3*%
%TO.N,/PIN14*%
X48260000Y-116840000D03*
%TO.P,J3,2*%
%TO.N,/PINS*%
X45720000Y-119380000D03*
D14*
%TO.P,J3,1*%
%TO.N,/PIN15*%
X48260000Y-119380000D03*
%TD*%
D15*
%TO.N,/PINS*%
X60960000Y-129381250D02*
X61515625Y-129381250D01*
X61515625Y-129381250D02*
X63500000Y-127396875D01*
X63500000Y-127396875D02*
X74215625Y-127396875D01*
X74215625Y-127396875D02*
X76200000Y-129381250D01*
D16*
X49688750Y-118110000D02*
X60960000Y-129381250D01*
X46990000Y-118110000D02*
X49688750Y-118110000D01*
X45720000Y-119380000D02*
X46990000Y-118110000D01*
D15*
X76200000Y-129381250D02*
X236220000Y-129381250D01*
%TO.N,/PINR*%
X60960000Y-125412500D02*
X61515625Y-125412500D01*
X61515625Y-125412500D02*
X63500000Y-123428125D01*
X63500000Y-123428125D02*
X74215625Y-123428125D01*
X74215625Y-123428125D02*
X76200000Y-125412500D01*
D16*
X51117500Y-115570000D02*
X60960000Y-125412500D01*
X46990000Y-115570000D02*
X51117500Y-115570000D01*
X45720000Y-116840000D02*
X46990000Y-115570000D01*
D15*
X76200000Y-125412500D02*
X236220000Y-125412500D01*
%TO.N,/PINP*%
X60960000Y-121443750D02*
X61515625Y-121443750D01*
X61515625Y-121443750D02*
X63500000Y-119459375D01*
X63500000Y-119459375D02*
X74215625Y-119459375D01*
X74215625Y-119459375D02*
X76200000Y-121443750D01*
D16*
X52546250Y-113030000D02*
X60960000Y-121443750D01*
X46990000Y-113030000D02*
X52546250Y-113030000D01*
X45720000Y-114300000D02*
X46990000Y-113030000D01*
D15*
X235743750Y-121920000D02*
X236220000Y-121443750D01*
X76200000Y-121443750D02*
X236220000Y-121443750D01*
%TO.N,/PINN*%
X60960000Y-117475000D02*
X60960000Y-117395625D01*
X60960000Y-117475000D02*
X61515625Y-117475000D01*
X61515625Y-117475000D02*
X63500000Y-115490625D01*
X63500000Y-115490625D02*
X74215625Y-115490625D01*
X74215625Y-115490625D02*
X76200000Y-117475000D01*
D16*
X53975000Y-110490000D02*
X60960000Y-117475000D01*
X46990000Y-110490000D02*
X53975000Y-110490000D01*
X45720000Y-111760000D02*
X46990000Y-110490000D01*
D15*
X76200000Y-117475000D02*
X236220000Y-117475000D01*
%TO.N,/PINM*%
X60960000Y-113506250D02*
X61515625Y-113506250D01*
X61515625Y-113506250D02*
X63500000Y-111521875D01*
X63500000Y-111521875D02*
X74215625Y-111521875D01*
X74215625Y-111521875D02*
X76200000Y-113506250D01*
D16*
X55403750Y-107950000D02*
X60960000Y-113506250D01*
X46990000Y-107950000D02*
X55403750Y-107950000D01*
X45720000Y-109220000D02*
X46990000Y-107950000D01*
D15*
X76200000Y-113506250D02*
X236220000Y-113506250D01*
%TO.N,/PINL*%
X60960000Y-109537500D02*
X61515625Y-109537500D01*
X61515625Y-109537500D02*
X63500000Y-107553125D01*
X63500000Y-107553125D02*
X74215625Y-107553125D01*
D16*
X56832500Y-105410000D02*
X60960000Y-109537500D01*
X46990000Y-105410000D02*
X56832500Y-105410000D01*
X45720000Y-106680000D02*
X46990000Y-105410000D01*
D15*
X236061250Y-109378750D02*
X236220000Y-109537500D01*
X76041250Y-109378750D02*
X236061250Y-109378750D01*
X74215625Y-107553125D02*
X76041250Y-109378750D01*
X76041250Y-109378750D02*
X76200000Y-109537500D01*
%TO.N,/PINK*%
X60960000Y-105568750D02*
X61515625Y-105568750D01*
X61515625Y-105568750D02*
X63500000Y-103584375D01*
X76200000Y-105489375D02*
X74295000Y-103584375D01*
X76200000Y-105568750D02*
X76200000Y-105489375D01*
X63500000Y-103584375D02*
X74295000Y-103584375D01*
D16*
X58261250Y-102870000D02*
X60960000Y-105568750D01*
X46990000Y-102870000D02*
X58261250Y-102870000D01*
X45720000Y-104140000D02*
X46990000Y-102870000D01*
D15*
X76200000Y-105568750D02*
X236220000Y-105568750D01*
%TO.N,/PINJ*%
X60960000Y-101600000D02*
X61515625Y-101600000D01*
X61515625Y-101600000D02*
X63500000Y-99615625D01*
X63500000Y-99615625D02*
X74215625Y-99615625D01*
X74215625Y-99615625D02*
X76200000Y-101600000D01*
D16*
X59690000Y-100330000D02*
X60960000Y-101600000D01*
X46990000Y-100330000D02*
X59690000Y-100330000D01*
X45720000Y-101600000D02*
X46990000Y-100330000D01*
D15*
X76200000Y-101600000D02*
X236220000Y-101600000D01*
%TO.N,/PINH*%
X60960000Y-97631250D02*
X61515625Y-97631250D01*
X61515625Y-97631250D02*
X63500000Y-95646875D01*
X63500000Y-95646875D02*
X74215625Y-95646875D01*
X74215625Y-95646875D02*
X76200000Y-97631250D01*
D16*
X60801250Y-97790000D02*
X60960000Y-97631250D01*
X46990000Y-97790000D02*
X60801250Y-97790000D01*
X45720000Y-99060000D02*
X46990000Y-97790000D01*
D15*
X76200000Y-97631250D02*
X236220000Y-97631250D01*
%TO.N,/PINF*%
X60960000Y-93662500D02*
X61515625Y-93662500D01*
X61515625Y-93662500D02*
X63500000Y-91678125D01*
X63500000Y-91678125D02*
X74215625Y-91678125D01*
D16*
X59372500Y-95250000D02*
X60960000Y-93662500D01*
X46990000Y-95250000D02*
X59372500Y-95250000D01*
X45720000Y-96520000D02*
X46990000Y-95250000D01*
D15*
X236220000Y-93662500D02*
X76517500Y-93662500D01*
X76517500Y-93662500D02*
X75406250Y-92551250D01*
X75088750Y-92551250D02*
X76200000Y-93662500D01*
X75406250Y-92551250D02*
X75088750Y-92551250D01*
X74215625Y-91678125D02*
X75088750Y-92551250D01*
%TO.N,/PINE*%
X60960000Y-89693750D02*
X61515625Y-89693750D01*
X61515625Y-89693750D02*
X63500000Y-87709375D01*
X63500000Y-87709375D02*
X74215625Y-87709375D01*
X74215625Y-87709375D02*
X76200000Y-89693750D01*
D16*
X57943750Y-92710000D02*
X60960000Y-89693750D01*
X46990000Y-92710000D02*
X57943750Y-92710000D01*
X45720000Y-93980000D02*
X46990000Y-92710000D01*
D15*
X236220000Y-89693750D02*
X80803750Y-89693750D01*
X80803750Y-89693750D02*
X82550000Y-89693750D01*
X76200000Y-89693750D02*
X80803750Y-89693750D01*
%TO.N,/PIND*%
X60960000Y-85725000D02*
X61515625Y-85725000D01*
X61515625Y-85725000D02*
X63500000Y-83740625D01*
X63500000Y-83740625D02*
X74215625Y-83740625D01*
X74215625Y-83740625D02*
X76200000Y-85725000D01*
D16*
X56515000Y-90170000D02*
X60960000Y-85725000D01*
X46990000Y-90170000D02*
X56515000Y-90170000D01*
X45720000Y-91440000D02*
X46990000Y-90170000D01*
D15*
X236220000Y-85725000D02*
X80645000Y-85725000D01*
X80645000Y-85725000D02*
X82550000Y-85725000D01*
X76200000Y-85725000D02*
X80645000Y-85725000D01*
%TO.N,/PINC*%
X60960000Y-81756250D02*
X61515625Y-81756250D01*
X61515625Y-81756250D02*
X63500000Y-79771875D01*
X63500000Y-79771875D02*
X74215625Y-79771875D01*
X74215625Y-79771875D02*
X76200000Y-81756250D01*
D16*
X55086250Y-87630000D02*
X60960000Y-81756250D01*
X46990000Y-87630000D02*
X55086250Y-87630000D01*
X45720000Y-88900000D02*
X46990000Y-87630000D01*
D15*
X236220000Y-81756250D02*
X81756250Y-81756250D01*
X81756250Y-81756250D02*
X82550000Y-81756250D01*
X76200000Y-81756250D02*
X81756250Y-81756250D01*
%TO.N,/PINB*%
X60960000Y-77787500D02*
X61515625Y-77787500D01*
X61515625Y-77787500D02*
X63500000Y-75803125D01*
X74215625Y-75803125D02*
X76200000Y-77787500D01*
X63500000Y-75803125D02*
X74215625Y-75803125D01*
D16*
X53657500Y-85090000D02*
X60960000Y-77787500D01*
X46990000Y-85090000D02*
X53657500Y-85090000D01*
X45720000Y-86360000D02*
X46990000Y-85090000D01*
D15*
X236220000Y-77787500D02*
X80962500Y-77787500D01*
X80962500Y-77787500D02*
X76200000Y-77787500D01*
X82550000Y-77787500D02*
X80962500Y-77787500D01*
%TO.N,/PINA*%
X60960000Y-73818750D02*
X61515625Y-73818750D01*
X61515625Y-73818750D02*
X63500000Y-71834375D01*
X63500000Y-71834375D02*
X74215625Y-71834375D01*
X74215625Y-71834375D02*
X76200000Y-73818750D01*
D16*
X52228750Y-82550000D02*
X60960000Y-73818750D01*
X46990000Y-82550000D02*
X52228750Y-82550000D01*
X45720000Y-83820000D02*
X46990000Y-82550000D01*
D15*
X81438750Y-73818750D02*
X82550000Y-73818750D01*
X236220000Y-73818750D02*
X81438750Y-73818750D01*
X76200000Y-73818750D02*
X81438750Y-73818750D01*
%TD*%
M02*
