%TF.GenerationSoftware,KiCad,Pcbnew,(5.1.9)-1*%
%TF.CreationDate,2021-03-18T23:59:30+01:00*%
%TF.ProjectId,extensioncard,65787465-6e73-4696-9f6e-636172642e6b,rev?*%
%TF.SameCoordinates,Original*%
%TF.FileFunction,Legend,Bot*%
%TF.FilePolarity,Positive*%
%FSLAX46Y46*%
G04 Gerber Fmt 4.6, Leading zero omitted, Abs format (unit mm)*
G04 Created by KiCad (PCBNEW (5.1.9)-1) date 2021-03-18 23:59:30*
%MOMM*%
%LPD*%
G01*
G04 APERTURE LIST*
%ADD10C,0.152400*%
%ADD11C,0.228600*%
%TA.AperFunction,Profile*%
%ADD12C,0.050000*%
%TD*%
%ADD13C,0.150000*%
G04 APERTURE END LIST*
D10*
X144392952Y-128983619D02*
X144392952Y-129709333D01*
X144441333Y-129854476D01*
X144538095Y-129951238D01*
X144683238Y-129999619D01*
X144780000Y-129999619D01*
X143425333Y-129999619D02*
X143909142Y-129999619D01*
X143909142Y-128983619D01*
X142506095Y-129902857D02*
X142554476Y-129951238D01*
X142699619Y-129999619D01*
X142796380Y-129999619D01*
X142941523Y-129951238D01*
X143038285Y-129854476D01*
X143086666Y-129757714D01*
X143135047Y-129564190D01*
X143135047Y-129419047D01*
X143086666Y-129225523D01*
X143038285Y-129128761D01*
X142941523Y-129032000D01*
X142796380Y-128983619D01*
X142699619Y-128983619D01*
X142554476Y-129032000D01*
X142506095Y-129080380D01*
X141780380Y-128983619D02*
X141780380Y-129709333D01*
X141828761Y-129854476D01*
X141925523Y-129951238D01*
X142070666Y-129999619D01*
X142167428Y-129999619D01*
X140812761Y-129999619D02*
X141296571Y-129999619D01*
X141296571Y-128983619D01*
X139893523Y-129902857D02*
X139941904Y-129951238D01*
X140087047Y-129999619D01*
X140183809Y-129999619D01*
X140328952Y-129951238D01*
X140425714Y-129854476D01*
X140474095Y-129757714D01*
X140522476Y-129564190D01*
X140522476Y-129419047D01*
X140474095Y-129225523D01*
X140425714Y-129128761D01*
X140328952Y-129032000D01*
X140183809Y-128983619D01*
X140087047Y-128983619D01*
X139941904Y-129032000D01*
X139893523Y-129080380D01*
X139167809Y-128983619D02*
X139167809Y-129709333D01*
X139216190Y-129854476D01*
X139312952Y-129951238D01*
X139458095Y-129999619D01*
X139554857Y-129999619D01*
X138200190Y-129999619D02*
X138684000Y-129999619D01*
X138684000Y-128983619D01*
X137280952Y-129902857D02*
X137329333Y-129951238D01*
X137474476Y-129999619D01*
X137571238Y-129999619D01*
X137716380Y-129951238D01*
X137813142Y-129854476D01*
X137861523Y-129757714D01*
X137909904Y-129564190D01*
X137909904Y-129419047D01*
X137861523Y-129225523D01*
X137813142Y-129128761D01*
X137716380Y-129032000D01*
X137571238Y-128983619D01*
X137474476Y-128983619D01*
X137329333Y-129032000D01*
X137280952Y-129080380D01*
X136555238Y-128983619D02*
X136555238Y-129709333D01*
X136603619Y-129854476D01*
X136700380Y-129951238D01*
X136845523Y-129999619D01*
X136942285Y-129999619D01*
X135587619Y-129999619D02*
X136071428Y-129999619D01*
X136071428Y-128983619D01*
X134668380Y-129902857D02*
X134716761Y-129951238D01*
X134861904Y-129999619D01*
X134958666Y-129999619D01*
X135103809Y-129951238D01*
X135200571Y-129854476D01*
X135248952Y-129757714D01*
X135297333Y-129564190D01*
X135297333Y-129419047D01*
X135248952Y-129225523D01*
X135200571Y-129128761D01*
X135103809Y-129032000D01*
X134958666Y-128983619D01*
X134861904Y-128983619D01*
X134716761Y-129032000D01*
X134668380Y-129080380D01*
D11*
X146884571Y-76816857D02*
X146666857Y-76889428D01*
X146304000Y-76889428D01*
X146158857Y-76816857D01*
X146086285Y-76744285D01*
X146013714Y-76599142D01*
X146013714Y-76454000D01*
X146086285Y-76308857D01*
X146158857Y-76236285D01*
X146304000Y-76163714D01*
X146594285Y-76091142D01*
X146739428Y-76018571D01*
X146812000Y-75946000D01*
X146884571Y-75800857D01*
X146884571Y-75655714D01*
X146812000Y-75510571D01*
X146739428Y-75438000D01*
X146594285Y-75365428D01*
X146231428Y-75365428D01*
X146013714Y-75438000D01*
X145070285Y-75365428D02*
X144780000Y-75365428D01*
X144634857Y-75438000D01*
X144489714Y-75583142D01*
X144417142Y-75873428D01*
X144417142Y-76381428D01*
X144489714Y-76671714D01*
X144634857Y-76816857D01*
X144780000Y-76889428D01*
X145070285Y-76889428D01*
X145215428Y-76816857D01*
X145360571Y-76671714D01*
X145433142Y-76381428D01*
X145433142Y-75873428D01*
X145360571Y-75583142D01*
X145215428Y-75438000D01*
X145070285Y-75365428D01*
X143038285Y-76889428D02*
X143764000Y-76889428D01*
X143764000Y-75365428D01*
X142530285Y-76889428D02*
X142530285Y-75365428D01*
X142167428Y-75365428D01*
X141949714Y-75438000D01*
X141804571Y-75583142D01*
X141732000Y-75728285D01*
X141659428Y-76018571D01*
X141659428Y-76236285D01*
X141732000Y-76526571D01*
X141804571Y-76671714D01*
X141949714Y-76816857D01*
X142167428Y-76889428D01*
X142530285Y-76889428D01*
X141006285Y-76091142D02*
X140498285Y-76091142D01*
X140280571Y-76889428D02*
X141006285Y-76889428D01*
X141006285Y-75365428D01*
X140280571Y-75365428D01*
X138756571Y-76889428D02*
X139264571Y-76163714D01*
X139627428Y-76889428D02*
X139627428Y-75365428D01*
X139046857Y-75365428D01*
X138901714Y-75438000D01*
X138829142Y-75510571D01*
X138756571Y-75655714D01*
X138756571Y-75873428D01*
X138829142Y-76018571D01*
X138901714Y-76091142D01*
X139046857Y-76163714D01*
X139627428Y-76163714D01*
X137014857Y-76816857D02*
X136797142Y-76889428D01*
X136434285Y-76889428D01*
X136289142Y-76816857D01*
X136216571Y-76744285D01*
X136144000Y-76599142D01*
X136144000Y-76454000D01*
X136216571Y-76308857D01*
X136289142Y-76236285D01*
X136434285Y-76163714D01*
X136724571Y-76091142D01*
X136869714Y-76018571D01*
X136942285Y-75946000D01*
X137014857Y-75800857D01*
X137014857Y-75655714D01*
X136942285Y-75510571D01*
X136869714Y-75438000D01*
X136724571Y-75365428D01*
X136361714Y-75365428D01*
X136144000Y-75438000D01*
X135490857Y-76889428D02*
X135490857Y-75365428D01*
X134765142Y-76889428D02*
X134765142Y-75365428D01*
X134402285Y-75365428D01*
X134184571Y-75438000D01*
X134039428Y-75583142D01*
X133966857Y-75728285D01*
X133894285Y-76018571D01*
X133894285Y-76236285D01*
X133966857Y-76526571D01*
X134039428Y-76671714D01*
X134184571Y-76816857D01*
X134402285Y-76889428D01*
X134765142Y-76889428D01*
X133241142Y-76091142D02*
X132733142Y-76091142D01*
X132515428Y-76889428D02*
X133241142Y-76889428D01*
X133241142Y-75365428D01*
X132515428Y-75365428D01*
X156318857Y-72825428D02*
X155956000Y-74349428D01*
X155665714Y-73260857D01*
X155375428Y-74349428D01*
X155012571Y-72825428D01*
X154504571Y-73914000D02*
X153778857Y-73914000D01*
X154649714Y-74349428D02*
X154141714Y-72825428D01*
X153633714Y-74349428D01*
X153125714Y-74349428D02*
X153125714Y-72825428D01*
X152254857Y-74349428D01*
X152254857Y-72825428D01*
X150730857Y-72898000D02*
X150876000Y-72825428D01*
X151093714Y-72825428D01*
X151311428Y-72898000D01*
X151456571Y-73043142D01*
X151529142Y-73188285D01*
X151601714Y-73478571D01*
X151601714Y-73696285D01*
X151529142Y-73986571D01*
X151456571Y-74131714D01*
X151311428Y-74276857D01*
X151093714Y-74349428D01*
X150948571Y-74349428D01*
X150730857Y-74276857D01*
X150658285Y-74204285D01*
X150658285Y-73696285D01*
X150948571Y-73696285D01*
X148916571Y-72970571D02*
X148844000Y-72898000D01*
X148698857Y-72825428D01*
X148336000Y-72825428D01*
X148190857Y-72898000D01*
X148118285Y-72970571D01*
X148045714Y-73115714D01*
X148045714Y-73260857D01*
X148118285Y-73478571D01*
X148989142Y-74349428D01*
X148045714Y-74349428D01*
X147465142Y-72970571D02*
X147392571Y-72898000D01*
X147247428Y-72825428D01*
X146884571Y-72825428D01*
X146739428Y-72898000D01*
X146666857Y-72970571D01*
X146594285Y-73115714D01*
X146594285Y-73260857D01*
X146666857Y-73478571D01*
X147537714Y-74349428D01*
X146594285Y-74349428D01*
X145650857Y-72825428D02*
X145505714Y-72825428D01*
X145360571Y-72898000D01*
X145288000Y-72970571D01*
X145215428Y-73115714D01*
X145142857Y-73406000D01*
X145142857Y-73768857D01*
X145215428Y-74059142D01*
X145288000Y-74204285D01*
X145360571Y-74276857D01*
X145505714Y-74349428D01*
X145650857Y-74349428D01*
X145796000Y-74276857D01*
X145868571Y-74204285D01*
X145941142Y-74059142D01*
X146013714Y-73768857D01*
X146013714Y-73406000D01*
X145941142Y-73115714D01*
X145868571Y-72970571D01*
X145796000Y-72898000D01*
X145650857Y-72825428D01*
X144199428Y-72825428D02*
X144054285Y-72825428D01*
X143909142Y-72898000D01*
X143836571Y-72970571D01*
X143764000Y-73115714D01*
X143691428Y-73406000D01*
X143691428Y-73768857D01*
X143764000Y-74059142D01*
X143836571Y-74204285D01*
X143909142Y-74276857D01*
X144054285Y-74349428D01*
X144199428Y-74349428D01*
X144344571Y-74276857D01*
X144417142Y-74204285D01*
X144489714Y-74059142D01*
X144562285Y-73768857D01*
X144562285Y-73406000D01*
X144489714Y-73115714D01*
X144417142Y-72970571D01*
X144344571Y-72898000D01*
X144199428Y-72825428D01*
X141877142Y-73551142D02*
X141369142Y-73551142D01*
X141151428Y-74349428D02*
X141877142Y-74349428D01*
X141877142Y-72825428D01*
X141151428Y-72825428D01*
X140643428Y-72825428D02*
X139627428Y-74349428D01*
X139627428Y-72825428D02*
X140643428Y-74349428D01*
X139264571Y-72825428D02*
X138393714Y-72825428D01*
X138829142Y-74349428D02*
X138829142Y-72825428D01*
X137885714Y-73551142D02*
X137377714Y-73551142D01*
X137160000Y-74349428D02*
X137885714Y-74349428D01*
X137885714Y-72825428D01*
X137160000Y-72825428D01*
X136506857Y-74349428D02*
X136506857Y-72825428D01*
X135636000Y-74349428D01*
X135636000Y-72825428D01*
X134982857Y-74276857D02*
X134765142Y-74349428D01*
X134402285Y-74349428D01*
X134257142Y-74276857D01*
X134184571Y-74204285D01*
X134112000Y-74059142D01*
X134112000Y-73914000D01*
X134184571Y-73768857D01*
X134257142Y-73696285D01*
X134402285Y-73623714D01*
X134692571Y-73551142D01*
X134837714Y-73478571D01*
X134910285Y-73406000D01*
X134982857Y-73260857D01*
X134982857Y-73115714D01*
X134910285Y-72970571D01*
X134837714Y-72898000D01*
X134692571Y-72825428D01*
X134329714Y-72825428D01*
X134112000Y-72898000D01*
X133458857Y-74349428D02*
X133458857Y-72825428D01*
X132442857Y-72825428D02*
X132152571Y-72825428D01*
X132007428Y-72898000D01*
X131862285Y-73043142D01*
X131789714Y-73333428D01*
X131789714Y-73841428D01*
X131862285Y-74131714D01*
X132007428Y-74276857D01*
X132152571Y-74349428D01*
X132442857Y-74349428D01*
X132588000Y-74276857D01*
X132733142Y-74131714D01*
X132805714Y-73841428D01*
X132805714Y-73333428D01*
X132733142Y-73043142D01*
X132588000Y-72898000D01*
X132442857Y-72825428D01*
X131136571Y-74349428D02*
X131136571Y-72825428D01*
X130265714Y-74349428D01*
X130265714Y-72825428D01*
X127508000Y-74204285D02*
X127580571Y-74276857D01*
X127798285Y-74349428D01*
X127943428Y-74349428D01*
X128161142Y-74276857D01*
X128306285Y-74131714D01*
X128378857Y-73986571D01*
X128451428Y-73696285D01*
X128451428Y-73478571D01*
X128378857Y-73188285D01*
X128306285Y-73043142D01*
X128161142Y-72898000D01*
X127943428Y-72825428D01*
X127798285Y-72825428D01*
X127580571Y-72898000D01*
X127508000Y-72970571D01*
X126927428Y-73914000D02*
X126201714Y-73914000D01*
X127072571Y-74349428D02*
X126564571Y-72825428D01*
X126056571Y-74349428D01*
X124677714Y-74349428D02*
X125185714Y-73623714D01*
X125548571Y-74349428D02*
X125548571Y-72825428D01*
X124968000Y-72825428D01*
X124822857Y-72898000D01*
X124750285Y-72970571D01*
X124677714Y-73115714D01*
X124677714Y-73333428D01*
X124750285Y-73478571D01*
X124822857Y-73551142D01*
X124968000Y-73623714D01*
X125548571Y-73623714D01*
X124024571Y-74349428D02*
X124024571Y-72825428D01*
X123661714Y-72825428D01*
X123444000Y-72898000D01*
X123298857Y-73043142D01*
X123226285Y-73188285D01*
X123153714Y-73478571D01*
X123153714Y-73696285D01*
X123226285Y-73986571D01*
X123298857Y-74131714D01*
X123444000Y-74276857D01*
X123661714Y-74349428D01*
X124024571Y-74349428D01*
X226749428Y-129249714D02*
X226749428Y-128378857D01*
X226749428Y-128814285D02*
X225225428Y-128814285D01*
X225443142Y-128669142D01*
X225588285Y-128524000D01*
X225660857Y-128378857D01*
X225225428Y-130628571D02*
X225225428Y-129902857D01*
X225951142Y-129830285D01*
X225878571Y-129902857D01*
X225806000Y-130048000D01*
X225806000Y-130410857D01*
X225878571Y-130556000D01*
X225951142Y-130628571D01*
X226096285Y-130701142D01*
X226459142Y-130701142D01*
X226604285Y-130628571D01*
X226676857Y-130556000D01*
X226749428Y-130410857D01*
X226749428Y-130048000D01*
X226676857Y-129902857D01*
X226604285Y-129830285D01*
X226749428Y-74095428D02*
X226749428Y-73224571D01*
X226749428Y-73660000D02*
X225225428Y-73660000D01*
X225443142Y-73514857D01*
X225588285Y-73369714D01*
X225660857Y-73224571D01*
X56496857Y-129104571D02*
X56569428Y-129322285D01*
X56569428Y-129685142D01*
X56496857Y-129830285D01*
X56424285Y-129902857D01*
X56279142Y-129975428D01*
X56134000Y-129975428D01*
X55988857Y-129902857D01*
X55916285Y-129830285D01*
X55843714Y-129685142D01*
X55771142Y-129394857D01*
X55698571Y-129249714D01*
X55626000Y-129177142D01*
X55480857Y-129104571D01*
X55335714Y-129104571D01*
X55190571Y-129177142D01*
X55118000Y-129249714D01*
X55045428Y-129394857D01*
X55045428Y-129757714D01*
X55118000Y-129975428D01*
X71809428Y-129249714D02*
X71809428Y-128378857D01*
X71809428Y-128814285D02*
X70285428Y-128814285D01*
X70503142Y-128669142D01*
X70648285Y-128524000D01*
X70720857Y-128378857D01*
X70285428Y-130628571D02*
X70285428Y-129902857D01*
X71011142Y-129830285D01*
X70938571Y-129902857D01*
X70866000Y-130048000D01*
X70866000Y-130410857D01*
X70938571Y-130556000D01*
X71011142Y-130628571D01*
X71156285Y-130701142D01*
X71519142Y-130701142D01*
X71664285Y-130628571D01*
X71736857Y-130556000D01*
X71809428Y-130410857D01*
X71809428Y-130048000D01*
X71736857Y-129902857D01*
X71664285Y-129830285D01*
X71809428Y-74095428D02*
X71809428Y-73224571D01*
X71809428Y-73660000D02*
X70285428Y-73660000D01*
X70503142Y-73514857D01*
X70648285Y-73369714D01*
X70720857Y-73224571D01*
X56134000Y-73297142D02*
X56134000Y-74022857D01*
X56569428Y-73152000D02*
X55045428Y-73660000D01*
X56569428Y-74168000D01*
D12*
X241300000Y-71120000D02*
X241300000Y-132080000D01*
X240030000Y-69850000D02*
X241300000Y-71120000D01*
X39370000Y-69850000D02*
X240030000Y-69850000D01*
X38100000Y-71120000D02*
X39370000Y-69850000D01*
X38100000Y-132080000D02*
X38100000Y-71120000D01*
X39370000Y-133350000D02*
X38100000Y-132080000D01*
X240030000Y-133350000D02*
X39370000Y-133350000D01*
X241300000Y-132080000D02*
X240030000Y-133350000D01*
%TO.C,J2*%
D13*
X68802380Y-101266666D02*
X69516666Y-101266666D01*
X69659523Y-101219047D01*
X69754761Y-101123809D01*
X69802380Y-100980952D01*
X69802380Y-100885714D01*
X68897619Y-101695238D02*
X68850000Y-101742857D01*
X68802380Y-101838095D01*
X68802380Y-102076190D01*
X68850000Y-102171428D01*
X68897619Y-102219047D01*
X68992857Y-102266666D01*
X69088095Y-102266666D01*
X69230952Y-102219047D01*
X69802380Y-101647619D01*
X69802380Y-102266666D01*
%TD*%
M02*
